<?xml version="1.0" standalone="no"?>
<!DOCTYPE svg PUBLIC "-//W3C//DTD SVG 20010904//EN"
 "http://www.w3.org/TR/2001/REC-SVG-20010904/DTD/svg10.dtd">
<svg version="1.0" xmlns="http://www.w3.org/2000/svg"
 width="700.000000pt" height="700.000000pt" viewBox="0 0 700.000000 700.000000"
 preserveAspectRatio="xMidYMid meet">
<metadata>
Created by potrace 1.14, written by Peter Selinger 2001-2017
</metadata>
<g transform="translate(0.000000,700.000000) scale(0.100000,-0.100000)"
fill="#000000" stroke="none">
<path d="M5758 5986 c-59 -67 -125 -139 -145 -162 -42 -45 -177 -194 -206
-227 -10 -12 -53 -60 -95 -106 -42 -46 -81 -89 -87 -95 -5 -6 -50 -56 -100
-111 -49 -55 -108 -120 -130 -144 -22 -24 -44 -49 -50 -55 -27 -30 -191 -212
-195 -216 -3 -3 -63 -70 -134 -150 -72 -80 -134 -149 -140 -155 -6 -5 -45 -48
-86 -95 -41 -46 -88 -98 -105 -115 -16 -17 -48 -51 -69 -76 -38 -43 -181 -201
-201 -223 -6 -6 -75 -83 -155 -171 -79 -88 -146 -162 -149 -165 -5 -4 -139
-155 -193 -216 -18 -20 -17 -22 49 -90 58 -60 213 -225 335 -355 46 -50 275
-293 323 -344 22 -23 71 -75 109 -116 38 -41 131 -139 206 -219 76 -80 152
-161 170 -180 18 -19 85 -91 150 -160 65 -69 137 -145 160 -170 23 -25 101
-108 174 -184 72 -76 138 -147 146 -156 20 -23 263 -282 371 -395 48 -49 103
-108 123 -130 20 -22 35 -33 32 -25 -28 92 -59 189 -66 205 -32 75 -218 723
-285 995 -20 80 -64 288 -90 425 -4 22 -9 49 -11 60 -32 214 -44 302 -49 360
-4 39 -8 77 -10 85 -23 92 -24 676 -1 885 2 17 6 57 10 90 3 33 8 76 11 95 3
19 7 55 10 80 45 348 182 905 360 1460 30 96 57 182 59 190 3 8 18 55 35 104
17 50 30 90 28 91 -1 1 -50 -53 -109 -119z"/>
<path d="M1179 5933 c30 -93 58 -177 62 -188 10 -24 88 -278 99 -320 4 -16 26
-93 48 -170 40 -136 99 -365 108 -415 3 -14 13 -61 24 -105 20 -88 28 -125 35
-170 5 -28 8 -43 20 -105 3 -14 8 -41 11 -60 3 -19 7 -46 10 -60 3 -23 10 -71
20 -140 2 -14 6 -54 9 -90 4 -36 9 -76 11 -90 19 -114 25 -601 11 -800 -29
-403 -100 -785 -252 -1360 -12 -48 -86 -302 -98 -340 -8 -25 -25 -79 -37 -120
-33 -110 -120 -381 -131 -410 -6 -16 15 0 58 46 61 64 320 337 383 405 14 15
80 85 145 155 160 169 171 181 310 329 66 70 140 149 164 174 24 25 93 99 155
165 151 162 180 192 261 278 82 87 304 323 365 388 23 25 103 110 178 190 76
80 173 183 217 230 44 47 82 87 85 90 44 43 44 47 2 92 -22 24 -50 55 -63 69
-13 15 -58 64 -99 109 -41 46 -83 93 -93 104 -10 12 -51 57 -90 100 -40 43
-79 87 -87 96 -15 17 -155 172 -175 194 -6 6 -48 53 -95 105 -47 52 -92 102
-100 111 -23 25 -173 191 -190 210 -8 9 -47 53 -87 96 -39 43 -80 88 -90 100
-10 12 -53 59 -96 106 -42 47 -87 97 -100 110 -12 13 -58 64 -102 113 -98 110
-165 184 -185 205 -23 25 -98 108 -174 193 -38 43 -78 88 -90 100 -12 13 -57
63 -101 112 -44 48 -91 100 -105 115 -14 15 -59 65 -100 110 -78 87 -100 110
-104 110 -1 0 23 -75 53 -167z"/>
</g>
</svg>
